<svg xmlns="http://www.w3.org/2000/svg" width="18" height="18" viewBox="0 0 18 18">
    <g fill="none" fill-rule="evenodd">
        <g fill="#4A4A4A" fill-rule="nonzero">
            <g>
                <g>
                    <path d="M15.68 1.406h-1.617V.563C14.063.252 13.81 0 13.5 0c-.31 0-.563.252-.563.563v.843H5.064V.563C5.063.252 4.81 0 4.5 0c-.31 0-.563.252-.563.563v.843H2.32C1.04 1.406 0 2.447 0 3.726V15.68C0 16.96 1.04 18 2.32 18h13.36c1.28 0 2.32-1.04 2.32-2.32V3.727c0-1.28-1.04-2.32-2.32-2.32zm1.195 14.274c0 .66-.535 1.195-1.195 1.195H2.32c-.66 0-1.195-.535-1.195-1.195V6.363c0-.097.079-.176.176-.176h15.398c.097 0 .176.08.176.176v9.317z" transform="translate(-324 -332) translate(27 214) translate(297 118)"/>
                </g>
            </g>
        </g>
    </g>
</svg>
