<svg xmlns="http://www.w3.org/2000/svg" width="20" height="21" viewBox="0 0 20 21">
    <g fill="none" fill-rule="evenodd">
        <g fill="#1B5AE0">
            <g>
                <g>
                    <g>
                        <g>
                            <path d="M19.141 1.095c-3.153.328-6.182 1.38-8.843 3.07-2.464 1.535-4.554 3.583-6.12 5.998-1.718 2.596-2.79 5.551-3.132 8.628-.005.063-.008.125-.008.188.005 1.104.922 1.996 2.049 1.991h3.06c1.035.026 1.926-.714 2.07-1.72.13-.959.369-1.902.714-2.809.28-.73.101-1.554-.459-2.109l-1.295-1.27c1.452-2.503 3.566-4.575 6.12-5.998l1.295 1.27c.566.548 1.407.724 2.152.45.926-.339 1.887-.574 2.866-.7 1.014-.14 1.765-.996 1.755-2v-3c0-.059-.003-.118-.009-.177-.095-1.039-.985-1.82-2.029-1.82-.061 0-.124.003-.186.008" transform="translate(-70 -900) translate(0 870) translate(69 30) rotate(-90 11 11)"/>
                        </g>
                    </g>
                </g>
            </g>
        </g>
    </g>
</svg>
