<svg xmlns="http://www.w3.org/2000/svg" width="50" height="50" viewBox="0 0 50 50">
    <defs>
        <linearGradient id="w7s4tyd1qa" x1="50%" x2="50%" y1="0%" y2="100%">
            <stop offset="0%" stop-color="#F4F4F4"/>
            <stop offset="100%" stop-color="#E5E5E5"/>
        </linearGradient>
    </defs>
    <g fill="none" fill-rule="evenodd">
        <g>
            <g>
                <g transform="translate(-338 -563) translate(29 555) translate(309 8)">
                    <rect width="50" height="50" fill="url(#w7s4tyd1qa)" opacity=".506" rx="25"/>
                    <g fill-rule="nonzero">
                        <g>
                            <path fill="#3BAE8C" d="M23.026 16.46c-1.523.004-3.037-.237-4.484-.713-.677-.236-1.429-.077-1.951.414l-2.84 2.142c-3.05-1.531-5.523-4.005-7.055-7.054l2.086-2.771c.526-.527.714-1.304.488-2.014-.477-1.449-.72-2.965-.717-4.49C8.553.884 7.669 0 6.579 0H1.974C.884 0 0 .884 0 1.974.014 14.684 10.315 24.986 23.026 25c1.09 0 1.974-.884 1.974-1.974v-4.592c0-1.09-.884-1.973-1.974-1.973z" transform="translate(12.5 12.5)"/>
                            <g>
                                <path fill="#E5E5E5" d="M10.098 10.79c-.37 0-.67-.302-.67-.675C9.422 5.276 5.523 1.355.712 1.35c-.37 0-.67-.302-.67-.675 0-.372.3-.674.67-.674C6.264.006 10.763 4.531 10.77 10.115c0 .373-.3.675-.67.675z" transform="translate(12.5 12.5) translate(14.19)"/>
                                <path fill="#AFAFAF" d="M4.735 10.79c-.37 0-.67-.302-.67-.675 0-1.862-1.501-3.371-3.353-3.371-.37 0-.67-.302-.67-.675 0-.372.3-.674.67-.674 2.592 0 4.693 2.113 4.693 4.72 0 .373-.3.675-.67.675z" transform="translate(12.5 12.5) translate(14.19)"/>
                            </g>
                        </g>
                    </g>
                </g>
            </g>
        </g>
    </g>
</svg>
