<svg xmlns="http://www.w3.org/2000/svg" width="27" height="22" viewBox="0 0 27 22">
    <g fill="none" fill-rule="evenodd">
        <g fill-rule="nonzero">
            <g>
                <g>
                    <g>
                        <path fill="#1B5AE0" d="M25.02 17.533h-1.563V1.467h1.562c.412 0 .746-.326.746-.733S25.431 0 25.02 0H1.155C.743 0 .409.327.409.734s.334.733.746.733h1.561v16.066H1.155c-.412 0-.746.326-.746.733s.334.734.746.734h23.864c.412 0 .746-.327.746-.734s-.334-.733-.746-.733zm-3.048 0H4.202h17.77zM14.526 20.657h-1.267c.024-.067.03-.141.03-.218v-.764c0-.373-.3-.675-.672-.675-.372 0-.67.302-.67.675v.764c0 .077.014.15.038.218h-1.393c-.372 0-.674.299-.674.671 0 .373.302.672.674.672h3.934c.372 0 .674-.299.674-.672 0-.372-.302-.671-.674-.671z" transform="translate(-251 -900) translate(0 870) translate(251 30) translate(.317)"/>
                        <path fill="#FFF" d="M19.952 7.331c-.227-.336-.699-.432-1.051-.215l-4.983 3.064-.932-2.367c-.082-.205-.256-.365-.475-.433-.219-.07-.459-.039-.652.08l-5.174 3.21c-.352.217-.452.666-.223 1 .146.214.39.33.638.33.143 0 .286-.038.415-.117l4.38-2.716.93 2.363c.081.205.255.364.474.433.218.07.458.04.65-.079l5.777-3.552c.352-.217.454-.665.226-1z" transform="translate(-251 -900) translate(0 870) translate(251 30) translate(.317)"/>
                    </g>
                </g>
            </g>
        </g>
    </g>
</svg>
